<?xml version="1.0" encoding="UTF-8"?>
<svg width="222px" height="32px" viewBox="0 0 222 32" version="1.1" xmlns="http://www.w3.org/2000/svg" xmlns:xlink="http://www.w3.org/1999/xlink">
    <title>elements/logo/oic</title>
    <g id="elements/logo/oic" stroke="none" stroke-width="1" fill="none" fill-rule="evenodd">
        <g id="Otto-Partner-Connect" transform="translate(107.816613, -0.000240)" fill="#555555">
            <polygon id="Fill-10" points="0 31.6365067 2.5308344 31.6365067 2.5308344 0.00024 0 0.00024"></polygon>
            <path d="M13.27112,25.5984267 C13.27112,22.1741067 15.7857867,19.66048 19.3500533,19.66048 C20.9833867,19.66048 22.3977867,20.1744 23.5804533,21.1331733 L22.1985867,22.8210667 C21.4329867,22.2090933 20.58152,21.7624 19.4004533,21.7624 C17.2348533,21.7624 15.81992,23.28272 15.81992,25.5984267 C15.81992,27.98136 17.20232,29.5366667 19.4004533,29.5366667 C20.58152,29.5366667 21.5316533,29.0899733 22.26392,28.3776533 L23.74712,29.9329867 C22.5313867,31.0569867 21.0668533,31.6362667 19.2668533,31.6362667 C15.7025867,31.6362667 13.27112,29.10536 13.27112,25.5984267" id="Fill-11"></path>
            <path d="M27.93432,25.61584 C27.93432,22.22464 30.3996533,19.6606133 33.9137867,19.6606133 C37.4300533,19.6606133 39.8948533,22.22464 39.8948533,25.61584 C39.8948533,29.05744 37.46232,31.6364 33.9137867,31.6364 C30.3820533,31.6364 27.93432,29.05744 27.93432,25.61584 Z M37.32872,25.61584 C37.32872,23.3654667 35.9465867,21.7448 33.9137867,21.7448 C31.89992,21.7448 30.50072,23.3654667 30.50072,25.61584 C30.50072,27.96376 31.8825867,29.55176 33.9137867,29.55176 C35.92952,29.55176 37.32872,27.96376 37.32872,25.61584 Z" id="Shape" fill-rule="nonzero"></path>
            <polygon id="Fill-13" points="44.2513867 19.8589067 46.6665867 19.8589067 51.8785867 27.5174133 51.8785867 19.8589067 54.2444533 19.8589067 54.2444533 31.43792 51.79672 31.43792 46.59832 23.81208 46.59832 31.43792 44.2513867 31.43792"></polygon>
            <polygon id="Fill-14" points="59.2313867 19.8589067 61.64632 19.8589067 66.8580533 27.5174133 66.8580533 19.8589067 69.2249867 19.8589067 69.2249867 31.43792 66.77672 31.43792 61.57832 23.81208 61.57832 31.43792 59.2313867 31.43792"></polygon>
            <polygon id="Fill-15" points="74.7780533 19.8589067 83.2556533 19.8589067 83.2556533 22.0261867 77.2921867 22.0261867 77.2921867 24.5902133 82.6068533 24.5902133 82.6068533 26.5264267 77.2921867 26.5264267 77.2921867 29.27112 83.3220533 29.27112 83.3220533 31.43792 74.7780533 31.43792"></polygon>
            <polygon id="Fill-19" points="102.75752 19.8588 102.75752 22.07648 106.60472 22.07648 106.60472 31.4382933 109.118853 31.4382933 109.118853 22.07648 112.98312 22.07648 112.98312 19.8588"></polygon>
            <path d="M88.0244533,25.5984267 C88.0244533,22.1741067 90.5401867,19.66048 94.10472,19.66048 C95.7364533,19.66048 97.1532533,20.1744 98.33592,21.1331733 L96.9516533,22.8210667 C96.1860533,22.2090933 95.3369867,21.7624 94.15512,21.7624 C91.9897867,21.7624 90.5729867,23.28272 90.5729867,25.5984267 C90.5729867,27.98136 91.9553867,29.5366667 94.15512,29.5366667 C95.3369867,29.5366667 96.28712,29.0899733 97.01992,28.3776533 L98.5025867,29.9329867 C97.2849867,31.0569867 95.81992,31.6362667 94.02152,31.6362667 C90.4569867,31.6362667 88.0244533,29.10536 88.0244533,25.5984267" id="Fill-17"></path>
        </g>
        <path d="M124.723,12 L124.723,0.1 L122.139,0.1 L122.139,12 L124.723,12 Z M131.481,12 L131.481,4.163 L136.785,12 L139.284,12 L139.284,0.1 L136.87,0.1 L136.87,7.971 L131.549,0.1 L129.084,0.1 L129.084,12 L131.481,12 Z M149.425,12 L149.425,2.378 L153.369,2.378 L153.369,0.1 L142.931,0.1 L142.931,2.378 L146.858,2.378 L146.858,12 L149.425,12 Z M165.754,12 L165.754,9.773 L159.6,9.773 L159.6,6.951 L165.023,6.951 L165.023,4.962 L159.6,4.962 L159.6,2.327 L165.686,2.327 L165.686,0.1 L157.033,0.1 L157.033,12 L165.754,12 Z M172.461,12 L172.461,7.631 L175.147,7.631 L176.966,12 L179.72,12 L177.476,7.206 C178.989,6.577 179.652,5.285 179.652,3.908 C179.652,1.987 178.496,0.1 175.062,0.1 L169.877,0.1 L169.877,12 L172.461,12 Z M175.028,5.676 L172.461,5.676 L172.461,2.123 L175.045,2.123 C176.371,2.123 177.068,2.854 177.068,3.908 C177.068,4.928 176.388,5.676 175.028,5.676 Z M186.189,12 L186.189,4.163 L191.493,12 L193.992,12 L193.992,0.1 L191.578,0.1 L191.578,7.971 L186.257,0.1 L183.792,0.1 L183.792,12 L186.189,12 Z M200.223,12 L200.954,9.79 L205.493,9.79 L206.224,12 L208.961,12 L204.711,0.1 L201.736,0.1 L197.469,12 L200.223,12 Z M204.847,7.852 L201.6,7.852 L203.198,3.024 L203.232,3.024 L204.847,7.852 Z M220.904,12 L220.904,9.773 L215.039,9.773 L215.039,0.1 L212.455,0.1 L212.455,12 L220.904,12 Z" id="INTERNAL" fill="#555555" fill-rule="nonzero"></path>
        <path d="M82.4649084,5.86197757e-14 C90.4132818,5.86197757e-14 95.5258684,4.80928 94.6235751,14.51416 L94.4946684,15.88792 C93.4629884,26.7952533 87.7068551,31.94808 78.8557084,31.94808 C70.9073351,31.94808 65.7952284,27.13928 66.6975218,17.39096 L66.8259484,16.0167467 C67.1729618,12.35016 68.0556284,9.34173333 69.4086151,6.95928 C68.4820284,7.64170667 67.2813084,7.98712 65.7952284,7.98712 L61.4980818,7.98712 L58.8350684,31.4332 C58.0616818,31.5615733 57.3737351,31.6904 55.3547751,31.6904 C52.0463218,31.6904 50.0703218,30.0160533 50.4995218,26.3662667 L52.6478684,7.98712 L43.9260818,7.98712 L41.2621351,31.4332 C40.4887484,31.5615733 39.8017351,31.6904 37.7818418,31.6904 C34.4743218,31.6904 32.4973884,30.0160533 32.9275218,26.3662667 L35.0753884,7.98712 L27.5805084,7.98712 C28.0923751,9.83933333 28.2623751,12.0131467 28.0297884,14.51416 L27.9008818,15.88792 C26.8701618,26.7952533 21.1121351,31.94808 12.2614684,31.94808 C4.31354844,31.94808 -0.799038227,27.13928 0.102801773,17.39096 L0.23170844,16.0167467 C1.26290844,5.11034667 7.02045511,5.86197757e-14 15.8706684,5.86197757e-14 C20.5264818,5.86197757e-14 24.2062151,1.6524 26.2774951,4.96984 C27.0364284,2.10613333 29.1371218,0.64416 32.1970951,0.64416 L48.9102151,0.64416 L48.1797884,6.31232 C49.5972284,2.23261333 51.6596284,0.64416 55.2688284,0.64416 L71.8096284,0.64416 C71.7830151,2.14533333 71.5793884,3.41965333 71.1931484,4.46477333 C73.9056551,1.45402667 77.7446418,5.86197757e-14 82.4649084,5.86197757e-14 Z M19.1790951,13.91296 C19.5658151,9.10368 17.6322951,7.25661333 15.0117884,7.25661333 C12.0470951,7.25661333 9.64096177,9.5756 9.03896177,16.91856 L8.95394844,17.99264 C8.56725511,22.80192 10.4568551,24.6050933 13.1212551,24.6050933 C16.0854951,24.6050933 18.4921084,22.3290667 19.0926951,14.9436 L19.1790951,13.91296 Z M85.7733351,13.91296 C86.1600551,9.10368 84.2265351,7.25661333 81.6050951,7.25661333 C78.6408818,7.25661333 76.2352018,9.5756 75.6336551,16.91856 L75.5477351,17.99264 C75.1605618,22.80192 77.0510951,24.6050933 79.7154951,24.6050933 C82.6802151,24.6050933 85.0854151,22.3290667 85.6869351,14.9436 L85.7733351,13.91296 Z" id="Shape" fill="#D4021D" fill-rule="nonzero"></path>
    </g>
</svg>